/* XPM */
static char * banana_xpm[] = {
"40 40 109 2",
"  	c #886570",
". 	c #8F6F75",
"+ 	c #967D7E",
"@ 	c #967D7F",
"# 	c #907177",
"$ 	c #93777A",
"% 	c #8F7076",
"& 	c #8E6D74",
"* 	c #755B69",
"= 	c #C1918E",
"- 	c #C39490",
"; 	c #C59993",
"> 	c #C39591",
", 	c #C49792",
"' 	c #C39390",
") 	c #C2938F",
"! 	c #C0928E",
"~ 	c #8C6C73",
"{ 	c #C2918E",
"] 	c #8D6C74",
"^ 	c #BD8B8A",
"/ 	c #C79E98",
"( 	c #BD8F8E",
"_ 	c #C09592",
": 	c #BA8688",
"< 	c #C49591",
"[ 	c #9F797D",
"} 	c #7B5E6B",
"| 	c #C49490",
"1 	c #7C5F6B",
"2 	c #8E6E75",
"3 	c #B98487",
"4 	c #BA8587",
"5 	c #957D7E",
"6 	c #957C7E",
"7 	c #8E6F75",
"8 	c #8D6D74",
"9 	c #745A68",
"0 	c #87646F",
"a 	c #92767A",
"b 	c #C49692",
"c 	c #BE8E8D",
"d 	c #C49A95",
"e 	c #BB8989",
"f 	c #9B8A8A",
"g 	c #9A8989",
"h 	c #917579",
"i 	c #917478",
"j 	c #C79D98",
"k 	c #C49691",
"l 	c #211F30",
"m 	c #A4CC42",
"n 	c #72A11D",
"o 	c #8C6A73",
"p 	c #C39590",
"q 	c #8D6B73",
"r 	c #28860F",
"s 	c #836A71",
"t 	c #836770",
"u 	c #745D69",
"v 	c #C1908E",
"w 	c #B1777F",
"x 	c #BF8F8D",
"y 	c #C0938F",
"z 	c #755D6A",
"A 	c #C49590",
"B 	c #C79B95",
"C 	c #C89D96",
"D 	c #C79A94",
"E 	c #C2928F",
"F 	c #896570",
"G 	c #E1CA33",
"H 	c #F7EC8A",
"I 	c #BA570B",
"J 	c #CE8B16",
"K 	c #978182",
"L 	c #988384",
"M 	c #947B7D",
"N 	c #FFFFFF",
"O 	c #C69A95",
"P 	c #C69B96",
"Q 	c #C59893",
"R 	c #BD8B8B",
"S 	c #BF9290",
"T 	c #C08F8D",
"U 	c #C29490",
"V 	c #C9A19A",
"W 	c #B6918D",
"X 	c #9E797C",
"Y 	c #AE717C",
"Z 	c #BC8889",
"` 	c #AE727C",
" .	c #C08E8C",
"..	c #8F7176",
"+.	c #8F6F76",
"@.	c #85616E",
"#.	c #AD707B",
"$.	c #896670",
"%.	c #85606D",
"&.	c #85616D",
"*.	c #B0757E",
"=.	c #BC8989",
"-.	c #B28887",
";.	c #9E7A7D",
">.	c #7E646E",
",.	c #C69B95",
"'.	c #CEACA1",
").	c #BF908D",
"!.	c #876570",
"  . . + + @ # $ % . . . . . . . . . & *   . . + + @ # $ % . . . . . . . . . & * ",
"= - - ; ; ; > , - - - - ' - ) ) ) - ! ~ { - - ; ; ; > , - - - - ' - ) ) ) - ! ] ",
"- - - - - - - - - - - - ^ / ( _ : < [ } | - - - - - - - - - - - ^ / ( _ : < [ 1 ",
"- - - - - - - - - - - - - > > < - - - 2 | - - - - - - - - - - - - > > < - - - . ",
"3 | | | | | | | | | | | | | | | | | {   4 | | | | | | | | | | | | | | | | | {   ",
"5 6 2 7 7 7 7 7 8 9 0 7 a # 5 5 6 2 7 . 5 6 2 7 7 7 7 7 8 9 0 7 a # 5 5 6 2 7 . ",
"; ; - - ' ' ) - ! ~ { - , < ; ; ; - - - ; ; - - ' ' ) - ! ~ { - , < ; ; ; - - - ",
"- - - b c d e < [ } | - - - - - - - - - - - - b c d e < [ } | - - - - - - - - - ",
"- - - - - < - - - 2 | - - - - - - - - - - - - - - < - - - 2 | - - - - - - - - - ",
"| | | | | | | | {   4 | | | | | | | | | | | | | | | | | {   4 | | | | | | | | | ",
"0 7 a # 5 f g h 6 i 7 7 7 7 7 7 7 7 8 9 0 7 a # 5 f g h 6 i 7 7 7 7 7 7 7 7 8 9 ",
"= - , < ; j j b ; k - - - - l l l - - 8 { - , < ; j j b ; k - - - - - - - - - & ",
"- - - - - - - - - - - - - l m n l < | o | - - - - - - - - - - - - - p - - < | q ",
"- - - - - - - - - - - - - l n r l s t u | - - - - - - - - - - - - v w x y s t z ",
"3 | | | | | | | | | | | | l r l l l l l l l l l | | | | | | | | | | A B C D E F ",
"7 7 7 7 7 7 7 7 8 9 0 7 l G H H G I J G G G G l 7 7 7 7 8 9 0 7 a # 5 K f L M . ",
"- - ' ) - - - ) ! ~ { - l G H N H I I I I I I l l ) - - - 8 { - , < ; O j P Q - ",
"- - R S T U V W X } | - l G H H H G I J J J J J l Y Z - - 7 | - - - - - - - - - ",
"- - - > - - < p - 2 | - l G H H N N G I I I I I l l ` p - 7 | - - - - - - - - - ",
"| | | | | | | | {   4 | l G G H H N N H H H H H G l Y  .{   4 | | | | | | | | | ",
"0 7 2 6 5 5 ..a +.. 7 7 o l G H H H N N N H H H G l @.o 7 . 7 7 7 7 7 7 7 7 8 9 ",
"= - - ; ; ; > , - - - - ' l G G H H H H H H H G G l ` ' - - - - ' - ) ) ) - ! ] ",
"- - - - - - - - - - - - p ` l G G G H H H G G G l #.` p - - - - ^ / ( _ : < [ 1 ",
"- - - - - - - - - - - - p ` #.l l G G G G G l l #.#.` p - - - - - > > < - - - . ",
"3 | | | | | | | | | | |  .Y #.#.#.l l l l l #.#.#.#.Y  .| | | | | | | | | | {   ",
"5 6 2 7 7 7 7 7 8 9 0 7 7 $.%.&.&.&.&.@.&.&.&.&.&.%.$.7 8 9 0 7 a # 5 5 6 2 7 . ",
"; ; - - ' ' ) - ! ~ { - - T *.` ` ` ` ` ` ` ` ` ` *.T - - 8 { - , < ; ; ; - - - ",
"- - - b c d e < [ } | - - - p p p p p p p p p p =.Z : -.;.>.| - - - - - - - - - ",
"- - - - - < - - - 2 | - - - - - - - - - - - - Q ,.'., ) ).$.| - - - - - - - - - ",
"| | | | | | | | {   4 | | | | | | | | | | | | - - - - | {   4 | | | | | | | | | ",
"0 7 a # 5 f g h 6 i 7 7 7 7 7 7 7 7 8 9 0 7 a # 5 f g h 6 i 7 7 7 7 7 7 7 7 8 9 ",
"= - , < ; j j b ; k - - - - - - - - - 8 { - , < ; j j b ; k - - - - - - - - - & ",
"- - - - - - - - - - - - - - p - - < | o | - - - - - - - - - - - - - p - - < | q ",
"- - - - - - - - - - - - - v w x y s t u | - - - - - - - - - - - - v w x y s t z ",
"3 | | | | | | | | | | | | | A B C D E   4 | | | | | | | | | | | | | A B C D E F ",
"7 7 7 7 7 7 7 7 8 9 0 7 a # 5 K f L M . 7 7 7 7 7 7 7 7 8 9 0 7 a # 5 K f L M . ",
"- - ' ) - - - ) ! ~ { - , < ; O j P Q - - - ' ) - - - ) ! ~ { - , < ; O j P Q - ",
"- - R S T U V W X } | - - - - - - - - - - - R S T U V W X } | - - - - - - - - - ",
"- - - > - - < p - 2 | - - - - - - - - - - - - > - - < p - 2 | - - - - - - - - - ",
"- - - - - - - - = !.3 - - - - - - - - - - - - - - - - - = !.3 - - - - - - - - - "};
