/* XPM */
static char * porta_xpm[] = {
"40 40 529 2",
"  	c #886570",
". 	c #8F6F75",
"+ 	c #967D7E",
"@ 	c #967D7F",
"# 	c #907177",
"$ 	c #93777A",
"% 	c #927476",
"& 	c #81636D",
"* 	c #937777",
"= 	c #937878",
"- 	c #93807F",
"; 	c #937A7A",
"> 	c #938381",
", 	c #937B7B",
"' 	c #8F6E73",
") 	c #755D69",
"! 	c #8E6C72",
"~ 	c #937677",
"{ 	c #937D7C",
"] 	c #937B7A",
"^ 	c #938281",
"/ 	c #93817F",
"( 	c #927475",
"_ 	c #8E6D74",
": 	c #755B69",
"< 	c #C1918E",
"[ 	c #C39490",
"} 	c #C59993",
"| 	c #AE7E7D",
"1 	c #C59E90",
"2 	c #FCC7AC",
"3 	c #C7968C",
"4 	c #FBC7AC",
"5 	c #FDCBAF",
"6 	c #FDCDB1",
"7 	c #FCDCBF",
"8 	c #FDD2B6",
"9 	c #FCE1C5",
"0 	c #FDD4B7",
"a 	c #F6BCA5",
"b 	c #927174",
"c 	c #F1B7A2",
"d 	c #FCD7BB",
"e 	c #FDD3B6",
"f 	c #FCDCC0",
"g 	c #FCE0C4",
"h 	c #FCDDC1",
"i 	c #C2938F",
"j 	c #C0928E",
"k 	c #8D6C74",
"l 	c #BB8582",
"m 	c #D8C1AF",
"n 	c #F5D7BF",
"o 	c #FCCBAF",
"p 	c #CCA594",
"q 	c #FBCAAE",
"r 	c #FBC9AD",
"s 	c #957878",
"t 	c #F7C7AC",
"u 	c #BA8688",
"v 	c #C49591",
"w 	c #9F797D",
"x 	c #7C5F6B",
"y 	c #BE8B85",
"z 	c #F3D3BB",
"A 	c #FBD3B7",
"B 	c #FBCDB1",
"C 	c #FAC8AD",
"D 	c #F7BFA8",
"E 	c #C28C86",
"F 	c #F9C7AC",
"G 	c #FAC7AC",
"H 	c #F0B19F",
"I 	c #906D72",
"J 	c #EBAB9B",
"K 	c #F9C6AC",
"L 	c #B98487",
"M 	c #C49490",
"N 	c #AD807E",
"O 	c #F7CFB7",
"P 	c #F7C1A8",
"Q 	c #EA9E94",
"R 	c #E38889",
"S 	c #B8737A",
"T 	c #AB7077",
"U 	c #CD8082",
"V 	c #CD7F82",
"W 	c #CD7F81",
"X 	c #85616C",
"Y 	c #CA7D80",
"Z 	c #C2918E",
"` 	c #957D7E",
" .	c #916C72",
"..	c #D7A595",
"+.	c #F5BDA6",
"@.	c #E89A92",
"#.	c #DD8687",
"$.	c #B07077",
"%.	c #92606D",
"&.	c #755B6A",
"*.	c #8B6370",
"=.	c #906471",
"-.	c #906571",
";.	c #85606F",
">.	c #6F5968",
",.	c #6D5A68",
"'.	c #636676",
").	c #695866",
"!.	c #715A69",
"~.	c #886170",
"{.	c #9F7E7B",
"].	c #E99E94",
"^.	c #DD8787",
"/.	c #92666F",
"(.	c #6C5867",
"_.	c #7A5C6C",
":.	c #9C6977",
"<.	c #AC6F7B",
"[.	c #AD707B",
"}.	c #AA6F7A",
"|.	c #7F5E6C",
"1.	c #6D5B69",
"2.	c #607384",
"3.	c #6D5967",
"4.	c #87616E",
"5.	c #AB6F7B",
"6.	c #87686F",
"7.	c #EEB19F",
"8.	c #FBCBAE",
"9.	c #F2B3A0",
"0.	c #E38F8C",
"a.	c #87626D",
"b.	c #6F5967",
"c.	c #745B69",
"d.	c #795C6A",
"e.	c #7B5D6B",
"f.	c #7C5D6B",
"g.	c #705A68",
"h.	c #6E5967",
"i.	c #705A67",
"j.	c #735A68",
"k.	c #725A68",
"l.	c #8B7073",
"m.	c #EBA297",
"n.	c #C97D80",
"o.	c #7B5D6A",
"p.	c #815F6E",
"q.	c #A16B78",
"r.	c #B0737C",
"s.	c #B47B80",
"t.	c #B67E83",
"u.	c #B57E83",
"v.	c #B47A80",
"w.	c #A56E79",
"x.	c #667888",
"y.	c #785C6A",
"z.	c #8B656F",
"A.	c #916F75",
"B.	c #927277",
"C.	c #927177",
"D.	c #8F6C73",
"E.	c #89636F",
"F.	c #7D5D6C",
"G.	c #896B71",
"H.	c #F6BBA5",
"I.	c #FDCCAF",
"J.	c #F8C1A9",
"K.	c #EA9A92",
"L.	c #8D646E",
"M.	c #A56C79",
"N.	c #AE707B",
"O.	c #B67E82",
"P.	c #C3938F",
"Q.	c #C3928E",
"R.	c #B67D82",
"S.	c #815F6C",
"T.	c #6E5C6A",
"U.	c #72828F",
"V.	c #8A626F",
"W.	c #BA8184",
"X.	c #C4938F",
"Y.	c #C59691",
"Z.	c #735C69",
"`.	c #937074",
" +	c #977A79",
".+	c #947375",
"++	c #8F6770",
"@+	c #755B68",
"#+	c #7A5D6A",
"$+	c #80626D",
"%+	c #846870",
"&+	c #846770",
"*+	c #80636E",
"=+	c #6E5B69",
"-+	c #647686",
";+	c #765C69",
">+	c #81646E",
",+	c #836770",
"'+	c #7D5F6C",
")+	c #876870",
"!+	c #F0B4A0",
"~+	c #F9C9AD",
"{+	c #F4BBA5",
"]+	c #E6968F",
"^+	c #8E646F",
"/+	c #6B5F6E",
"(+	c #6E6371",
"_+	c #7D6371",
":+	c #B17F82",
"<+	c #C29490",
"[+	c #C29390",
"}+	c #B57F83",
"|+	c #79606D",
"1+	c #6E7E8D",
"2+	c #82616D",
"3+	c #B88386",
"4+	c #8B7477",
"5+	c #FAD6BA",
"6+	c #ECA397",
"7+	c #8F656F",
"8+	c #697F8E",
"9+	c #78919D",
"0+	c #667685",
"a+	c #987679",
"b+	c #7D6570",
"c+	c #687989",
"d+	c #896B73",
"e+	c #8B7A7B",
"f+	c #FAE4C8",
"g+	c #FBCBAF",
"h+	c #8F646F",
"i+	c #6F6976",
"j+	c #74727D",
"k+	c #7D6976",
"l+	c #AF7E82",
"m+	c #C49590",
"n+	c #7D6670",
"o+	c #71818F",
"p+	c #8B7274",
"q+	c #FACEB2",
"r+	c #90646F",
"s+	c #A26E78",
"t+	c #B88B8A",
"u+	c #B98D8B",
"v+	c #BD8F8C",
"w+	c #BE918D",
"x+	c #BE908D",
"y+	c #BE918E",
"z+	c #B07A80",
"A+	c #79616E",
"B+	c #81959E",
"C+	c #80606D",
"D+	c #B37F83",
"E+	c #8B7779",
"F+	c #FADDC1",
"G+	c #8F646E",
"H+	c #6F5E6B",
"I+	c #82979F",
"J+	c #735B69",
"K+	c #86656F",
"L+	c #8C6D74",
"M+	c #8B6D74",
"N+	c #81606D",
"O+	c #825F6E",
"P+	c #946672",
"Q+	c #876170",
"R+	c #715E6C",
"S+	c #798B96",
"T+	c #856670",
"U+	c #BF8C8B",
"V+	c #B58385",
"W+	c #90656F",
"X+	c #FAC9AE",
"Y+	c #A46C78",
"Z+	c #A96E7A",
"`+	c #78606E",
" @	c #7E929B",
".@	c #BD8F8D",
"+@	c #84666E",
"@@	c #E4A999",
"#@	c #EEC0A7",
"$@	c #E8B19E",
"%@	c #DB8E8A",
"&@	c #8C636E",
"*@	c #8E6373",
"=@	c #A56D78",
"-@	c #A66D78",
";@	c #A66D79",
">@	c #956675",
",@	c #735D6C",
"'@	c #728290",
")@	c #7F5F6C",
"!@	c #AF7C81",
"~@	c #BB8E8C",
"{@	c #BA8E8B",
"]@	c #BA8D8B",
"^@	c #A47079",
"/@	c #775E6A",
"(@	c #AA7F7D",
"_@	c #B18F86",
":@	c #AD8580",
"<@	c #A57176",
"[@	c #87626E",
"}@	c #937277",
"|@	c #937378",
"1@	c #947378",
"2@	c #8B6670",
"3@	c #725D6B",
"4@	c #6B7C8B",
"5@	c #8C6872",
"6@	c #937278",
"7@	c #86626E",
"8@	c #8A6D72",
"9@	c #FAC6AC",
"0@	c #EB9E94",
"a@	c #91656F",
"b@	c #B78687",
"c@	c #7B626E",
"d@	c #866771",
"e@	c #C18F8D",
"f@	c #8B787A",
"g@	c #FAE0C4",
"h@	c #EBA397",
"i@	c #BC8E8C",
"j@	c #B78185",
"k@	c #8C6B74",
"l@	c #715F6C",
"m@	c #6C5E6C",
"n@	c #73606D",
"o@	c #936C76",
"p@	c #BA8687",
"q@	c #FADEC2",
"r@	c #A06D77",
"s@	c #B58988",
"t@	c #B58A89",
"u@	c #B68B89",
"v@	c #B28383",
"w@	c #8A656E",
"x@	c #7D8E98",
"y@	c #849CA4",
"z@	c #726975",
"A@	c #839CA5",
"B@	c #7D8A93",
"C@	c #936970",
"D@	c #B38585",
"E@	c #B58A88",
"F@	c #B48988",
"G@	c #6A5766",
"H@	c #695765",
"I@	c #6D5866",
"J@	c #717E8C",
"K@	c #839BA3",
"L@	c #706572",
"M@	c #778E9B",
"N@	c #7D8B94",
"O@	c #7F5B6A",
"P@	c #977178",
"Q@	c #9B787B",
"R@	c #9B777B",
"S@	c #8C6470",
"T@	c #8B7375",
"U@	c #FAD1B5",
"V@	c #8C6272",
"W@	c #9F6A76",
"X@	c #966674",
"Y@	c #795B6A",
"Z@	c #717F8D",
"`@	c #778F9B",
" #	c #7C8A94",
".#	c #9E757A",
"+#	c #C3928F",
"@#	c #B88888",
"##	c #735B68",
"$#	c #A86E7A",
"%#	c #88616E",
"&#	c #707F8D",
"*#	c #A0797C",
"=#	c #BB8D8B",
"-#	c #8A6E72",
";#	c #F9C3AA",
">#	c #EB9F95",
",#	c #8A6171",
"'#	c #9D6975",
")#	c #946573",
"!#	c #785B6A",
"~#	c #895F6D",
"{#	c #AA7E81",
"]#	c #B08686",
"^#	c #AF8686",
"/#	c #AF8585",
"(#	c #9B6A75",
"_#	c #795F6A",
":#	c #B38581",
"<#	c #BB978B",
"[#	c #B68B84",
"}#	c #AE7579",
"|#	c #7E5E6A",
"1#	c #936772",
"2#	c #A47E7F",
"3#	c #A47E80",
"4#	c #9D737A",
"5#	c #7E5C6A",
"6#	c #7E8B94",
"7#	c #6C5665",
"8#	c #7D5E6A",
"9#	c #83656D",
"0#	c #DFA496",
"a#	c #E9BCA4",
"b#	c #E2AC9B",
"c#	c #D68B88",
"d#	c #8B646E",
"e#	c #BA8B8A",
"f#	c #937076",
"g#	c #707E8C",
"h#	c #7E5C6B",
"i#	c #9D6976",
"j#	c #A36C78",
"k#	c #906473",
"l#	c #715A68",
"m#	c #89626D",
"n#	c #8B7174",
"o#	c #FACDB1",
"p#	c #EBA296",
"q#	c #BA8C8A",
"r#	c #947076",
"s#	c #906370",
"t#	c #AC707B",
"u#	c #956773",
"v#	c #A77F81",
"w#	c #A78081",
"x#	c #A78082",
"y#	c #A0757B",
"z#	c #7F5D6A",
"A#	c #788F9B",
"B#	c #795A6A",
"C#	c #916472",
"D#	c #976773",
"E#	c #865F6F",
"F#	c #6E5867",
"G#	c #8B7376",
"H#	c #FAD2B7",
"I#	c #996A75",
"J#	c #AB8383",
"K#	c #AC8384",
"L#	c #A87C7E",
"M#	c #85636D",
"N#	c #667686",
"O#	c #819AA3",
"P#	c #6E8895",
"Q#	c #8C666E",
"R#	c #AA7F80",
"S#	c #AB8384",
"T#	c #AB8484",
"U#	c #AC8484",
"V#	c #AD8484",
"W#	c #A88182",
"X#	c #FADFC3",
"Y#	c #FBCAAD",
"Z#	c #775F6D",
"`#	c #7D6771",
" $	c #8C6974",
".$	c #C39590",
"+$	c #B37E82",
"@$	c #816470",
"#$	c #627182",
"$$	c #6E606D",
"%$	c #8C6A75",
"&$	c #B78385",
"*$	c #7B646F",
"=$	c #6F8391",
"-$	c #7E97A1",
";$	c #6C7988",
">$	c #9A767A",
",$	c #BD8987",
"'$	c #7B626D",
")$	c #647786",
"!$	c #86666F",
"~$	c #BF8B89",
"{$	c #676979",
"]$	c #6E7280",
"^$	c #736877",
"/$	c #AB7C80",
"($	c #BC8989",
"_$	c #7B636F",
":$	c #896C73",
"<$	c #886970",
"[$	c #F2B7A2",
"}$	c #F6BEA6",
"|$	c #E79790",
"1$	c #6E5866",
"2$	c #745B68",
"3$	c #866570",
"4$	c #8A6C73",
"5$	c #83626E",
"6$	c #715D6B",
"7$	c #755E6A",
"8$	c #735C68",
"9$	c #906E73",
"0$	c #917174",
"a$	c #8C666F",
"b$	c #926474",
"c$	c #9D6977",
"d$	c #637686",
"e$	c #B48083",
"f$	c #BF928E",
"g$	c #BF918E",
"h$	c #A9737C",
"i$	c #896A70",
"j$	c #F4B9A3",
"k$	c #F7C0A8",
"l$	c #E99991",
"m$	c #A26B78",
"n$	c #7E5E6C",
"o$	c #6C7D8C",
"p$	c #BD908D",
"q$	c #91666F",
"r$	c #8B7678",
"s$	c #FADABE",
"t$	c #7D5D6D",
"u$	c #8C6370",
"v$	c #8D6370",
"w$	c #84606E",
"x$	c #84646F",
"y$	c #BD898A",
"z$	c #8B797B",
"A$	c #FAE3C7",
"B$	c #7E616C",
"C$	c #82666F",
"D$	c #81666F",
"  . . + + @ # $ % & & % * = - ; > , ' ) ! ~ ~ { ] - ^ / ( & & % . . . . . . _ : ",
"< [ [ } } } | 1 2 3 3 4 5 6 7 8 9 0 a b c 5 5 d e f g h 4 3 3 2 1 | i i i [ j k ",
"[ [ [ [ l m n o o p p o q q q q r q q s t q q q q q r q o p p o o n m l u v w x ",
"[ [ [ y z A B C D E E D F F F F F G H I J K F F F F F F D E E D C B A z y [ [ . ",
"L M N O A q P Q R S T U V V V V V V W X Y V V V V V V V U T S R Q P q A O N Z   ",
"`  ...o q +.@.#.$.%.&.*.=.=.=.=.-.;.>.,.'.).!.~.-.=.=.=.*.&.%.$.#.@.+.q o .. .. ",
"} {.4 q q ].^./.(._.:.<.[.[.[.[.[.}.|.1.2.3.4.5.[.[.[.[.<.:._.(./.^.].q q 4 {.[ ",
"6.7.q 8.9.0.a.b.c.d.e.f.f.f.f.f.f.d.g.1.2.h.i.j.j.j.j.j.j.k.b.h.h.a.0.9.8.q 7.6.",
"l.q q o m.n.o.p.q.r.s.t.u.u.u.t.v.w.e.1.x.h.y.z.A.B.C.C.C.B.D.E.F.o.n.m.o q q l.",
"G.H.I.J.K.L.j.M.N.O.P.v v v v v Q.R.S.T.U.3.V.W.X.Y.Y.Y.Y.Y.Q.v.M.j.L.K.J.I.H.G.",
"Z.`. +.+++@+b.#+o.$+%+&+&+&+&+&+%+*+c.=+-+b.;+>+%+&+&+&+&+&+,+'+#+b.@+++.+ +`.Z.",
")+!+~+{+]+^+/+(+_+:+<+i i i i i i [+}+|+1+2+3+<+i i i i i <+:+_+(+/+^+]+{+~+!+)+",
"4+5+q o 6+7+8+9+0+a+v [ [ [ [ [ [ [ [ b+c+d+v [ [ [ [ [ [ v a+0+9+8+7+6+o q 5+4+",
"e+f+r g+m.h+i+j+k+l+m+[ [ [ [ [ [ [ [ n+o+d+v [ [ [ [ [ [ m+l+k+j+i+h+m.g+r f+e+",
"p+q+q g+m.r+s+t+u+v+w+x+x+x+x+x+x+y+z+A+B+C+D+y+x+x+x+x+x+w+v+u+t+s+r+m.g+q q+p+",
"E+F+q g+m.G+3.3.3.3.3.3.3.3.3.3.3.3.3.H+I+J+K+L+L+L+L+L+L+L+L+L+M+N+h+m.g+q F+E+",
"l.r q g+m.h+O+P+P+P+P+P+P+P+P+P+P+P+Q+R+S+T+U+v v v v v v v v v M V+W+m.g+q r l.",
"l.X+q g+m.r+Y+[.[.[.[.[.[.[.[.[.[.[.Z+`+ @d+m+[ [ [ [ [ [ [ [ [ [ .@W+m.g+q X+l.",
"+@@@#@$@%@&@*@=@-@-@-@-@-@-@-@-@-@;@>@,@'@)@!@~@{@{@{@{@{@{@{@{@]@^@&@%@$@#@@@+@",
"/@(@_@:@<@o.[@}@|@|@|@|@|@|@|@|@|@1@2@3@4@: 5@6@}@}@}@}@}@}@}@}@}@7@o.<@:@_@(@/@",
"8@J.I.9@0@a@b@M v v v v v v v v v v U+c@2.d@e@v v v v v v v v v M b@a@0@9@I.J.8@",
"f@g@r g+h@W+i@[ [ [ [ [ [ [ [ [ [ j@k@l@m@n@o@p@[ [ [ [ [ [ [ [ [ i@W+h@g+r g@f@",
"E+q@q g+m.r+r@s@t@t@t@t@t@t@t@u@v@w@x@y@z@A@B@C@D@t@E@E@E@E@E@E@F@r@r+m.g+q q@E+",
"4+5+q g+m.G+(.G@H@H@H@H@H@H@H@H@G@I@J@K@L@M@N@O@P@Q@Q@Q@Q@Q@Q@Q@R@S@h+m.g+q 5+4+",
"T@U@q g+m.G+g.V@W@W@W@W@W@W@W@W@X@Y@Z@K@L@`@ #.#+#m+M M M M M M M @#W+m.g+q U@T@",
"l.q q g+m.G+##$#[.[.[.[.[.[.[.[.<.%#&#K@L@`@ #*#[ [ [ [ [ [ [ [ [ =#W+m.g+q q l.",
"-#;#o G >#h+b.,#'#'#'#'#'#'#'#'#)#!#Z@K@L@`@N@~#{#]#^#^#^#^#^#^#/#(#W+>#G o ;#-#",
"_#:#<#[#}#|#1#2#3#3#3#3#3#3#3#3#4#5#Z@K@L@`@6#7#G@G@G@G@G@G@G@G@G@(.8#}#[#<#:#_#",
"9#0#a#b#c#d#e#[ [ [ [ [ [ [ [ [ +#f#g#K@L@`@N@h#i#Y+j#j#j#j#j#Y+k#l#m#c#b#a#0#9#",
"n#o#q q p#W+q#[ [ [ [ [ [ [ [ [ P.r#g#K@L@`@N@s#t#[.[.[.[.[.[.[.$###G+p#q q o#n#",
"e+f+r g+m.r+u#v#w#w#w#w#w#w#w#x#y#z#Z@K@L@A#6#B#C#D#D#D#D#D#D#D#E#F#G+m.g+r f+e+",
"G#H#q g+m.r+I#J#K#J#J#J#J#J#J#J#L#M#N#O#(+P#N@Q#R#S#S#S#S#S#T#U#V#W#W+m.g+q H#G#",
"f@X#Y#g+m.h+Z#`# $3+.$[ [ [ [ [ [ +$@$L@#$$$%$&$[ [ [ [ [ .$3+ $`#*$h+m.g+Y#X#f@",
"l.q q g+m.7+=$-$;$>$v [ [ [ [ [ [ [ ,$'$)$!$~$[ [ [ [ [ [ v >$;$-$=$7+m.g+q q l.",
"l.q q o 6+h+{$]$^$/$Y.v v v v v v v ($_$o+:$Y.v v v v v v Y./$^$]${$h+6+o q q l.",
"<$[$8.}$|$h+h.1$2$3$4$4$4$4$4$4$4$4$5$6$o+7$4$4$4$4$4$4$4$4$3$2$h.h.h+|$}$8.[$<$",
"8$9$* 0$a$: b$Z+}.}.}.}.}.}.}.}.}.c$y.1.d$C+e$f$g$g$g$g$g$g$g$g$x+h$;+a$0$* 9$8$",
"i$j$o k$l$W+m$[.N.N.N.N.N.N.N.N.N.Z+n$T.o$d+v [ [ [ [ [ [ [ [ [ [ p$q$l$k$o j$i$",
"r$s$q o 6+h+t$u$u$u$u$u$u$u$u$u$v$w$k.T.4@x$y$v v v v v v v v v M D+W+6+o q s$r$",
"z$A$r g+m.G+h.h.h.h.h.h.h.h.h.h.h.h.h.1.d$l#B$C$C$C$C$C$C$C$C$C$D$e.h+m.g+r A$z$"};
