/* XPM */
static char * floor_xpm[] = {
"40 40 121 2",
"  	c #886570",
". 	c #8F6F75",
"+ 	c #967D7E",
"@ 	c #967D7F",
"# 	c #907177",
"$ 	c #93777A",
"% 	c #8F7076",
"& 	c #8E6D74",
"* 	c #755B69",
"= 	c #C1918E",
"- 	c #C39490",
"; 	c #C59993",
"> 	c #C39591",
", 	c #C49792",
"' 	c #C39390",
") 	c #C2938F",
"! 	c #C0928E",
"~ 	c #8C6C73",
"{ 	c #C2918E",
"] 	c #8D6C74",
"^ 	c #BD8B8A",
"/ 	c #C79E98",
"( 	c #BD8F8E",
"_ 	c #C09592",
": 	c #BA8688",
"< 	c #C49591",
"[ 	c #9F797D",
"} 	c #7B5E6B",
"| 	c #C49490",
"1 	c #7C5F6B",
"2 	c #8E6E75",
"3 	c #B98487",
"4 	c #BA8587",
"5 	c #957D7E",
"6 	c #957C7E",
"7 	c #8E6F75",
"8 	c #8D6D74",
"9 	c #745A68",
"0 	c #87646F",
"a 	c #92767A",
"b 	c #C49692",
"c 	c #BE8E8D",
"d 	c #C49A95",
"e 	c #BB8989",
"f 	c #9B8A8A",
"g 	c #9A8989",
"h 	c #917579",
"i 	c #917478",
"j 	c #C79D98",
"k 	c #C49691",
"l 	c #C39590",
"m 	c #8C6A73",
"n 	c #8D6B73",
"o 	c #C1908E",
"p 	c #B1777F",
"q 	c #BF8F8D",
"r 	c #C0938F",
"s 	c #836A71",
"t 	c #836770",
"u 	c #745D69",
"v 	c #755D6A",
"w 	c #C49590",
"x 	c #C79B95",
"y 	c #C89D96",
"z 	c #C79A94",
"A 	c #C2928F",
"B 	c #896570",
"C 	c #978182",
"D 	c #988384",
"E 	c #947B7D",
"F 	c #C59893",
"G 	c #C59994",
"H 	c #C69C97",
"I 	c #C59A95",
"J 	c #C69A95",
"K 	c #C69B96",
"L 	c #BD8B8B",
"M 	c #BF9290",
"N 	c #C08F8D",
"O 	c #C29490",
"P 	c #C9A19A",
"Q 	c #B6918D",
"R 	c #9E797C",
"S 	c #BC8889",
"T 	c #AE717C",
"U 	c #AD6F7B",
"V 	c #AE727C",
"W 	c #AD707B",
"X 	c #AB6F7B",
"Y 	c #A66D78",
"Z 	c #C08E8C",
"` 	c #8C6271",
" .	c #6D5967",
"..	c #8F7176",
"+.	c #8F6F76",
"@.	c #85616E",
"#.	c #85616D",
"$.	c #825F6D",
"%.	c #6F5967",
"&.	c #6E5967",
"*.	c #7A5D6A",
"=.	c #A26B78",
"-.	c #926571",
";.	c #906471",
">.	c #745B69",
",.	c #86616F",
"'.	c #926572",
").	c #84606D",
"!.	c #7D5E6C",
"~.	c #A16B78",
"{.	c #896670",
"].	c #85606D",
"^.	c #B0757E",
"/.	c #BC8989",
"(.	c #B28887",
"_.	c #9E7A7D",
":.	c #7E646E",
"<.	c #C69B95",
"[.	c #CEACA1",
"}.	c #BF908D",
"|.	c #876570",
"  . . + + @ # $ % . . . . . . . . . & *   . . + + @ # $ % . . . . . . . . . & * ",
"= - - ; ; ; > , - - - - ' - ) ) ) - ! ~ { - - ; ; ; > , - - - - ' - ) ) ) - ! ] ",
"- - - - - - - - - - - - ^ / ( _ : < [ } | - - - - - - - - - - - ^ / ( _ : < [ 1 ",
"- - - - - - - - - - - - - > > < - - - 2 | - - - - - - - - - - - - > > < - - - . ",
"3 | | | | | | | | | | | | | | | | | {   4 | | | | | | | | | | | | | | | | | {   ",
"5 6 2 7 7 7 7 7 8 9 0 7 a # 5 5 6 2 7 . 5 6 2 7 7 7 7 7 8 9 0 7 a # 5 5 6 2 7 . ",
"; ; - - ' ' ) - ! ~ { - , < ; ; ; - - - ; ; - - ' ' ) - ! ~ { - , < ; ; ; - - - ",
"- - - b c d e < [ } | - - - - - - - - - - - - b c d e < [ } | - - - - - - - - - ",
"- - - - - < - - - 2 | - - - - - - - - - - - - - - < - - - 2 | - - - - - - - - - ",
"| | | | | | | | {   4 | | | | | | | | | | | | | | | | | {   4 | | | | | | | | | ",
"0 7 a # 5 f g h 6 i 7 7 7 7 7 7 7 7 8 9 0 7 a # 5 f g h 6 i 7 7 7 7 7 7 7 7 8 9 ",
"= - , < ; j j b ; k - - - - - - - - - 8 { - , < ; j j b ; k - - - - - - - - - & ",
"- - - - - - - - - - - - - - l - - < | m | - - - - - - - - - - - - - l - - < | n ",
"- - - - - - - - - - - - - o p q r s t u | - - - - - - - - - - - - o p q r s t v ",
"3 | | | | | | | | | | | | | w x y z A   4 | | | | | | | | | | | | | w x y z A B ",
"7 7 7 7 7 7 7 7 8 9 0 7 a # 5 C f D E . 7 7 7 7 7 7 7 7 8 9 0 7 a # 5 C f D E . ",
"- - ' ) - - - ) ! ~ { - , > F G H I , ) ) ) ) ) ) ) - - - 8 { - , < ; J j K F - ",
"- - L M N O P Q R } | - - S T U U U U U U U U U U T S - - 7 | - - - - - - - - - ",
"- - - > - - < l - 2 | - l V W W W X Y Y Y Y X W W W V l - 7 | - - - - - - - - - ",
"| | | | | | | | {   4 | Z T W W W `  . . . .` W W W T Z {   4 | | | | | | | | | ",
"0 7 2 6 5 5 ..a +.. 7 7 m @.#.$.%.&.&.&.&.&.&.%.$.#.@.m 7 . 7 7 7 7 7 7 7 7 8 9 ",
"= - - ; ; ; > , - - - - ' V W W *.&.&.&.&.&.&.*.W W V ' - - - - ' - ) ) ) - ! ] ",
"- - - - - - - - - - - - l V W W =.-.;.>.,.'.-.=.W W V l - - - - ^ / ( _ : < [ 1 ",
"- - - - - - - - - - - - l V W W W W W ).W W W W W W V l - - - - - > > < - - - . ",
"3 | | | | | | | | | | | Z T W W W W X !.~.W W W W W T Z | | | | | | | | | | {   ",
"5 6 2 7 7 7 7 7 8 9 0 7 7 {.].#.#.#.#.@.#.#.#.#.#.].{.7 8 9 0 7 a # 5 5 6 2 7 . ",
"; ; - - ' ' ) - ! ~ { - - N ^.V V V V V V V V V V ^.N - - 8 { - , < ; ; ; - - - ",
"- - - b c d e < [ } | - - - l l l l l l l l l l /.S : (._.:.| - - - - - - - - - ",
"- - - - - < - - - 2 | - - - - - - - - - - - - F <.[., ) }.{.| - - - - - - - - - ",
"| | | | | | | | {   4 | | | | | | | | | | | | - - - - | {   4 | | | | | | | | | ",
"0 7 a # 5 f g h 6 i 7 7 7 7 7 7 7 7 8 9 0 7 a # 5 f g h 6 i 7 7 7 7 7 7 7 7 8 9 ",
"= - , < ; j j b ; k - - - - - - - - - 8 { - , < ; j j b ; k - - - - - - - - - & ",
"- - - - - - - - - - - - - - l - - < | m | - - - - - - - - - - - - - l - - < | n ",
"- - - - - - - - - - - - - o p q r s t u | - - - - - - - - - - - - o p q r s t v ",
"3 | | | | | | | | | | | | | w x y z A   4 | | | | | | | | | | | | | w x y z A B ",
"7 7 7 7 7 7 7 7 8 9 0 7 a # 5 C f D E . 7 7 7 7 7 7 7 7 8 9 0 7 a # 5 C f D E . ",
"- - ' ) - - - ) ! ~ { - , < ; J j K F - - - ' ) - - - ) ! ~ { - , < ; J j K F - ",
"- - L M N O P Q R } | - - - - - - - - - - - L M N O P Q R } | - - - - - - - - - ",
"- - - > - - < l - 2 | - - - - - - - - - - - - > - - < l - 2 | - - - - - - - - - ",
"- - - - - - - - = |.3 - - - - - - - - - - - - - - - - - = |.3 - - - - - - - - - "};
