/* XPM */
static char * king_xpm[] = {
"40 40 378 2",
"  	c #886570",
". 	c #8F6F75",
"+ 	c #967D7E",
"@ 	c #967D7F",
"# 	c #907177",
"$ 	c #93777A",
"% 	c #8F7076",
"& 	c #8E6D74",
"* 	c #755B69",
"= 	c #C1918E",
"- 	c #C39490",
"; 	c #C59993",
"> 	c #C39591",
", 	c #C49792",
"' 	c #C39390",
") 	c #C2938F",
"! 	c #C0928E",
"~ 	c #8C6C73",
"{ 	c #C2918E",
"] 	c #8D6C74",
"^ 	c #BD8B8A",
"/ 	c #C79E98",
"( 	c #BD8F8E",
"_ 	c #C09592",
": 	c #BA8688",
"< 	c #C49591",
"[ 	c #9F797D",
"} 	c #7B5E6B",
"| 	c #C49490",
"1 	c #7C5F6B",
"2 	c #8E6E75",
"3 	c #B98487",
"4 	c #BA8587",
"5 	c #957D7E",
"6 	c #957C7E",
"7 	c #8E6F75",
"8 	c #8D6D74",
"9 	c #745A68",
"0 	c #87646F",
"a 	c #92767A",
"b 	c #C49692",
"c 	c #BE8E8D",
"d 	c #C49A95",
"e 	c #BB8989",
"f 	c #9B8A8A",
"g 	c #9A8989",
"h 	c #917579",
"i 	c #917478",
"j 	c #C79D98",
"k 	c #C49691",
"l 	c #C39590",
"m 	c #AC8484",
"n 	c #82666E",
"o 	c #83656E",
"p 	c #604D5F",
"q 	c #9C787B",
"r 	c #82646D",
"s 	c #82636D",
"t 	c #A77F80",
"u 	c #916F75",
"v 	c #8D6B73",
"w 	c #C1908E",
"x 	c #B1777F",
"y 	c #BA8B8A",
"z 	c #A0474B",
"A 	c #E98056",
"B 	c #EC9C67",
"C 	c #4B4056",
"D 	c #C97B5B",
"E 	c #EEBB7A",
"F 	c #E8CD90",
"G 	c #E6BD7F",
"H 	c #BFB388",
"I 	c #E0B67B",
"J 	c #86676F",
"K 	c #BF8F8D",
"L 	c #C0938F",
"M 	c #836A71",
"N 	c #836770",
"O 	c #755D6A",
"P 	c #C49590",
"Q 	c #C19791",
"R 	c #A86555",
"S 	c #EF895A",
"T 	c #F19F67",
"U 	c #F6C37E",
"V 	c #B9785B",
"W 	c #E5B678",
"X 	c #EDB778",
"Y 	c #77414E",
"Z 	c #B87A60",
"` 	c #E3CB90",
" .	c #F3E2A1",
"..	c #82626C",
"+.	c #C79B95",
"@.	c #C89D96",
"#.	c #C79A94",
"$.	c #C2928F",
"%.	c #896570",
"&.	c #937D7F",
"*.	c #9C434A",
"=.	c #E77F56",
"-.	c #EA9A66",
";.	c #EFBC7B",
">.	c #E99563",
",.	c #EFBD7B",
"'.	c #E8B577",
").	c #EEBD7D",
"!.	c #F3D593",
"~.	c #EABD7D",
"{.	c #614E60",
"].	c #978182",
"^.	c #988384",
"/.	c #947B7D",
"(.	c #C59893",
"_.	c #9F7D7F",
":.	c #526378",
"<.	c #55677C",
"[.	c #3A435D",
"}.	c #52647A",
"|.	c #5F7283",
"1.	c #505A6C",
"2.	c #748893",
"3.	c #768B95",
"4.	c #4F5265",
"5.	c #97A0A8",
"6.	c #4B4F63",
"7.	c #A89FA3",
"8.	c #BC8F8C",
"9.	c #C69A95",
"0.	c #C69B96",
"a.	c #BD8B8B",
"b.	c #BF9290",
"c.	c #C08F8D",
"d.	c #C29490",
"e.	c #C9A19A",
"f.	c #B6918D",
"g.	c #9E797C",
"h.	c #BC8889",
"i.	c #AE717C",
"j.	c #534157",
"k.	c #4B4C62",
"l.	c #554E63",
"m.	c #4D3E56",
"n.	c #544E63",
"o.	c #595467",
"p.	c #534B5D",
"q.	c #626572",
"r.	c #636773",
"s.	c #544C5D",
"t.	c #73727C",
"u.	c #514459",
"v.	c #676572",
"w.	c #B28786",
"x.	c #AE727C",
"y.	c #AD707B",
"z.	c #775263",
"A.	c #8D3A53",
"B.	c #D8474B",
"C.	c #DC4C4A",
"D.	c #E15A50",
"E.	c #DE5D56",
"F.	c #BE7369",
"G.	c #E2BDA7",
"H.	c #E4BFAA",
"I.	c #CBA08F",
"J.	c #D2746B",
"K.	c #57495A",
"L.	c #B88C8A",
"M.	c #C08E8C",
"N.	c #A96D79",
"O.	c #893954",
"P.	c #D6474C",
"Q.	c #E05A50",
"R.	c #EF7760",
"S.	c #EC907B",
"T.	c #DAC3B0",
"U.	c #ECCBB5",
"V.	c #EF947E",
"W.	c #EF957F",
"X.	c #E2A996",
"Y.	c #E1C6B2",
"Z.	c #81606A",
"`.	c #8F7176",
" +	c #826970",
".+	c #7F626C",
"++	c #80636B",
"@+	c #7F636B",
"#+	c #7F626B",
"$+	c #7E5F6B",
"%+	c #85616E",
"&+	c #85616D",
"*+	c #735465",
"=+	c #3B3450",
"-+	c #473750",
";+	c #CE4F4D",
">+	c #DD4F4B",
",+	c #F07860",
"'+	c #F07961",
")+	c #F18065",
"!+	c #BA5B56",
"~+	c #684152",
"{+	c #F27961",
"]+	c #EB7660",
"^+	c #604E60",
"/+	c #8B6F75",
"(+	c #A8B6BB",
"_+	c #CDD1D2",
":+	c #BDC5C7",
"<+	c #C3C9CB",
"[+	c #8097A2",
"}+	c #7D5A6A",
"|+	c #915E6D",
"1+	c #C2AD9F",
"2+	c #C4A99A",
"3+	c #AE786E",
"4+	c #7F3853",
"5+	c #9E3E51",
"6+	c #E66657",
"7+	c #EB6F5B",
"8+	c #F28266",
"9+	c #F08064",
"0+	c #D68368",
"a+	c #F17860",
"b+	c #EB765F",
"c+	c #53465A",
"d+	c #B98C8A",
"e+	c #6C5E6B",
"f+	c #CDDADD",
"g+	c #94AFBA",
"h+	c #90ACB7",
"i+	c #809AAA",
"j+	c #5B495D",
"k+	c #805365",
"l+	c #E2CBB7",
"m+	c #ECD4BE",
"n+	c #DDB4A0",
"o+	c #5C4355",
"p+	c #423851",
"q+	c #D2464C",
"r+	c #E26657",
"s+	c #E15D52",
"t+	c #E56456",
"u+	c #EC725C",
"v+	c #D7554F",
"w+	c #DB5B52",
"x+	c #9D8F88",
"y+	c #837474",
"z+	c #645865",
"A+	c #9CBAC1",
"B+	c #8CA7B3",
"C+	c #8CA9B5",
"D+	c #8DA7B3",
"E+	c #7F9AAA",
"F+	c #5B4A5E",
"G+	c #815465",
"H+	c #E0C9B5",
"I+	c #A4948C",
"J+	c #CF9A88",
"K+	c #C48171",
"L+	c #644957",
"M+	c #753755",
"N+	c #A93B53",
"O+	c #D2474A",
"P+	c #B53E52",
"Q+	c #D8464B",
"R+	c #973A53",
"S+	c #B93D54",
"T+	c #9C867F",
"U+	c #7E6B6D",
"V+	c #B78B88",
"W+	c #87656C",
"X+	c #655865",
"Y+	c #9DBBC2",
"Z+	c #8BA7B4",
"`+	c #8BA8B4",
" @	c #454157",
".@	c #463A52",
"+@	c #5A5564",
"@@	c #45475D",
"#@	c #5B5363",
"$@	c #5F5665",
"%@	c #555565",
"&@	c #565868",
"*@	c #615969",
"=@	c #726370",
"-@	c #6B6371",
";@	c #645665",
">@	c #555063",
",@	c #574D61",
"'@	c #524F61",
")@	c #463E55",
"!@	c #6D7480",
"~@	c #D4DFE1",
"{@	c #79616A",
"]@	c #565060",
"^@	c #9DBAC2",
"/@	c #434057",
"(@	c #3F3750",
"_@	c #506177",
":@	c #617485",
"<@	c #718593",
"[@	c #778B97",
"}@	c #8398A0",
"|@	c #94A3A9",
"1@	c #99A6AC",
"2@	c #BBBFC1",
"3@	c #BEC0C3",
"4@	c #889BA2",
"5@	c #7B8F99",
"6@	c #718592",
"7@	c #677B8B",
"8@	c #43435B",
"9@	c #545E71",
"0@	c #91AFB9",
"a@	c #564A5C",
"b@	c #8DAAB6",
"c@	c #5D4F60",
"d@	c #A8707A",
"e@	c #9D6874",
"f@	c #3E3952",
"g@	c #3E3E55",
"h@	c #3E3F55",
"i@	c #3E4056",
"j@	c #3E4456",
"k@	c #3E4055",
"l@	c #3E4156",
"m@	c #3E3A53",
"n@	c #A98181",
"o@	c #79606C",
"p@	c #545365",
"q@	c #BA8D8B",
"r@	c #625564",
"s@	c #9EBBC2",
"t@	c #94AFB9",
"u@	c #94B0B9",
"v@	c #615261",
"w@	c #514559",
"x@	c #306276",
"y@	c #277E8B",
"z@	c #33747E",
"A@	c #32747E",
"B@	c #347B80",
"C@	c #3A8F87",
"D@	c #347A80",
"E@	c #368082",
"F@	c #32737D",
"G@	c #52596C",
"H@	c #967479",
"I@	c #7E646E",
"J@	c #655765",
"K@	c #8AA5B2",
"L@	c #768EA1",
"M@	c #7A93A4",
"N@	c #6D889C",
"O@	c #635262",
"P@	c #AF8685",
"Q@	c #3B4B5F",
"R@	c #484C60",
"S@	c #B38887",
"T@	c #B38886",
"U@	c #B38786",
"V@	c #B48B89",
"W@	c #B58E8B",
"X@	c #BD9D95",
"Y@	c #B48A88",
"Z@	c #B88C89",
"`@	c #BF908D",
" #	c #896670",
".#	c #C1928F",
"+#	c #775C66",
"@#	c #785C66",
"##	c #5B485A",
"$#	c #745663",
"%#	c #795E67",
"&#	c #8C6A73",
"*#	c #745D69",
"=#	c #876570",
"  . . + + @ # $ % . . . . . . . . . & *   . . + + @ # $ % . . . . . . . . . & * ",
"= - - ; ; ; > , - - - - ' - ) ) ) - ! ~ { - - ; ; ; > , - - - - ' - ) ) ) - ! ] ",
"- - - - - - - - - - - - ^ / ( _ : < [ } | - - - - - - - - - - - ^ / ( _ : < [ 1 ",
"- - - - - - - - - - - - - > > < - - - 2 | - - - - - - - - - - - - > > < - - - . ",
"3 | | | | | | | | | | | | | | | | | {   4 | | | | | | | | | | | | | | | | | {   ",
"5 6 2 7 7 7 7 7 8 9 0 7 a # 5 5 6 2 7 . 5 6 2 7 7 7 7 7 8 9 0 7 a # 5 5 6 2 7 . ",
"; ; - - ' ' ) - ! ~ { - , < ; ; ; - - - ; ; - - ' ' ) - ! ~ { - , < ; ; ; - - - ",
"- - - b c d e < [ } | - - - - - - - - - - - - b c d e < [ } | - - - - - - - - - ",
"- - - - - < - - - 2 | - - - - - - - - - - - - - - < - - - 2 | - - - - - - - - - ",
"| | | | | | | | {   4 | | | | | | | | | | | | | | | | | {   4 | | | | | | | | | ",
"0 7 a # 5 f g h 6 i 7 7 7 7 7 7 7 7 8 9 0 7 a # 5 f g h 6 i 7 7 7 7 7 7 7 7 8 9 ",
"= - , < ; j j b ; k - - - - - - - - - 8 { - , < ; j j b ; k - - - - - - - - - & ",
"- - - - - - - - - - - - - - l - m n o p | q r s r t u - - - - - - - l - - < | v ",
"- - - - - - - - - - - - - w x y z A B B C D E F G H I J - - - - - w x K L M N O ",
"3 | | | | | | | | | | | | | P Q R S T U V W X Y Z `  ...| | | | | | P +.@.#.$.%.",
"7 7 7 7 7 7 7 7 8 9 0 7 a # 5 &.*.=.-.;.>.,.E '.).!.~.{.8 9 0 7 a # 5 ].f ^./.. ",
"- - ' ) - - - ) ! ~ { - , > (._.:.<.[.}.|.1.2.3.4.5.6.7.8.8 { - , < ; 9.j 0.(.- ",
"- - a.b.c.d.e.f.g.} | - - h.i.j.k.l.m.n.o.p.q.r.s.t.u.v.w.7 | - - - - - - - - - ",
"- - - > - - < l - 2 | - l x.y.z.A.B.C.D.E.F.G.H.H.I.J.K.L.7 | - - - - - - - - - ",
"| | | | | | | | {   4 | M.i.y.N.O.P.Q.R.S.T.U.V.W.X.Y.Z.{   4 | | | | | | | | | ",
"0 7 2 6 5 5 `. +.+++@+#+$+%+&+*+=+-+;+>+,+'+)+!+~+{+]+^+7 . 7 7 7 7 7 7 7 7 8 9 ",
"= - - ; ; ; /+(+_+:+:+<+[+}+|+1+2+3+4+5+6+7+8+9+0+a+b+c+d+- - - ' - ) ) ) - ! ] ",
"- - - - - - e+f+g+h+h+g+i+j+k+l+m+n+o+p+q+r+s+t+u+v+w+x+y+- - - ^ / ( _ : < [ 1 ",
"- - - - - - z+A+B+C+C+D+E+F+G+H+I+J+K+L+M+N+O+P+Q+R+S+T+U+V+W+- - > > < - - - . ",
"3 | | | | | X+Y+Z+C+C+`+E+ @.@+@@@#@$@%@&@*@=@-@;@>@,@'@)@!@~@{@| | | | | | {   ",
"5 6 2 7 7 7 ]@^@C+C+C+C+E+/@(@_@:@<@[@}@|@1@2@3@4@5@6@7@8@9@0@a@a # 5 5 6 2 7 . ",
"; ; - - ' ' z+^@b@C+C+b@E+c@d@e@f@g@h@h@i@j@k@l@h@h@h@m@n@o@p@q@, < ; ; ; - - - ",
"- - - b c d r@s@t@C+C+u@i+v@l w@x@y@z@A@B@C@D@E@A@A@F@G@H@I@| - - - - - - - - - ",
"- - - - - < J@K@L@M@M@L@N@O@- P@Q@R@S@T@T@U@T@V@W@X@Y@Z@`@ #| - - - - - - - - - ",
"| | | | | | .#+#@###$#%#+#.#| | | | | | | | | - - - - | {   4 | | | | | | | | | ",
"0 7 a # 5 f g h 6 i 7 7 7 7 7 7 7 7 8 9 0 7 a # 5 f g h 6 i 7 7 7 7 7 7 7 7 8 9 ",
"= - , < ; j j b ; k - - - - - - - - - 8 { - , < ; j j b ; k - - - - - - - - - & ",
"- - - - - - - - - - - - - - l - - < | &#| - - - - - - - - - - - - - l - - < | v ",
"- - - - - - - - - - - - - w x K L M N *#| - - - - - - - - - - - - w x K L M N O ",
"3 | | | | | | | | | | | | | P +.@.#.$.  4 | | | | | | | | | | | | | P +.@.#.$.%.",
"7 7 7 7 7 7 7 7 8 9 0 7 a # 5 ].f ^./.. 7 7 7 7 7 7 7 7 8 9 0 7 a # 5 ].f ^./.. ",
"- - ' ) - - - ) ! ~ { - , < ; 9.j 0.(.- - - ' ) - - - ) ! ~ { - , < ; 9.j 0.(.- ",
"- - a.b.c.d.e.f.g.} | - - - - - - - - - - - a.b.c.d.e.f.g.} | - - - - - - - - - ",
"- - - > - - < l - 2 | - - - - - - - - - - - - > - - < l - 2 | - - - - - - - - - ",
"- - - - - - - - = =#3 - - - - - - - - - - - - - - - - - = =#3 - - - - - - - - - "};
