/* XPM */
static char * wall_xpm[] = {
"40 40 318 2",
"  	c #574A57",
". 	c #534454",
"+ 	c #524354",
"@ 	c #534856",
"# 	c #544C59",
"$ 	c #544E5B",
"% 	c #544C58",
"& 	c #544A57",
"* 	c #534655",
"= 	c #514154",
"- 	c #453B52",
"; 	c #473A52",
"> 	c #503E53",
", 	c #544B58",
"' 	c #534957",
") 	c #B17A6A",
"! 	c #D39E7D",
"~ 	c #D9B78F",
"{ 	c #DBCAA4",
"] 	c #DBD5B6",
"^ 	c #DBCEAA",
"/ 	c #DBC9A1",
"( 	c #DAC29A",
"_ 	c #D6AB85",
": 	c #CA8F75",
"< 	c #7F5B5D",
"[ 	c #91565B",
"} 	c #C6786A",
"| 	c #CD9076",
"1 	c #DBCBA5",
"2 	c #DABC94",
"3 	c #D8AE86",
"4 	c #D6AA84",
"5 	c #D49F7E",
"6 	c #FCC493",
"7 	c #FED19D",
"8 	c #FFDEAC",
"9 	c #FFE5B9",
"0 	c #FFE0B0",
"a 	c #FFDDA9",
"b 	c #FFD8A5",
"c 	c #FCCA97",
"d 	c #F3B88C",
"e 	c #977367",
"f 	c #A85E5E",
"g 	c #EA9478",
"h 	c #F6BA8D",
"i 	c #FED5A1",
"j 	c #FDCC98",
"k 	c #FCC996",
"l 	c #D8AE87",
"m 	c #FBCA97",
"n 	c #FBCA96",
"o 	c #F7C795",
"p 	c #9A7E6C",
"q 	c #A65C5D",
"r 	c #EB9C7C",
"s 	c #FAC896",
"t 	c #9A7D6C",
"u 	c #EA997B",
"v 	c #F8C493",
"w 	c #FBC997",
"x 	c #D7AD86",
"y 	c #FDCB98",
"z 	c #F6C594",
"A 	c #A75E5E",
"B 	c #E78D74",
"C 	c #F0AB84",
"D 	c #F9C494",
"E 	c #D0977A",
"F 	c #F8BF90",
"G 	c #FAC795",
"H 	c #EFB188",
"I 	c #946E65",
"J 	c #A7605F",
"K 	c #E4826F",
"L 	c #E79075",
"M 	c #F0AC85",
"N 	c #F8C393",
"O 	c #FBCB98",
"P 	c #503F53",
"Q 	c #C77D6C",
"R 	c #F0A682",
"S 	c #F7BE90",
"T 	c #FCCB98",
"U 	c #FCCC98",
"V 	c #FAC695",
"W 	c #F3B48A",
"X 	c #E59578",
"Y 	c #8E5D5D",
"Z 	c #A86260",
"` 	c #E37F6D",
" .	c #E3816E",
"..	c #E78F75",
"+.	c #EDA380",
"@.	c #EFAA84",
"#.	c #4F3D52",
"$.	c #C36F65",
"%.	c #E88C74",
"&.	c #F3B68B",
"*.	c #F4B78C",
"=.	c #F4B88C",
"-.	c #F1AF87",
";.	c #E99679",
">.	c #DF816E",
",.	c #8C555A",
"'.	c #A55B5C",
").	c #E17869",
"!.	c #4F3C52",
"~.	c #C16B63",
"{.	c #E37E6C",
"].	c #E3826E",
"^.	c #E3836F",
"/.	c #E3806D",
"(.	c #DD796A",
"_.	c #8B5359",
":.	c #934552",
"<.	c #CB615C",
"[.	c #D47769",
"}.	c #D4786A",
"|.	c #4D3A51",
"1.	c #B45356",
"2.	c #D96F63",
"3.	c #DE7D6C",
"4.	c #DC7969",
"5.	c #CF615B",
"6.	c #834553",
"7.	c #503951",
"8.	c #694153",
"9.	c #6C4756",
"0.	c #6C4856",
"a.	c #433851",
"b.	c #733E51",
"c.	c #884C56",
"d.	c #8C555B",
"e.	c #5B3B51",
"f.	c #3A3851",
"g.	c #393751",
"h.	c #373650",
"i.	c #363651",
"j.	c #383651",
"k.	c #383650",
"l.	c #373651",
"m.	c #383751",
"n.	c #393851",
"o.	c #92585C",
"p.	c #A9615F",
"q.	c #A75F5E",
"r.	c #A7615F",
"s.	c #A86360",
"t.	c #3E3851",
"u.	c #4F3853",
"v.	c #6C3756",
"w.	c #783954",
"x.	c #823D51",
"y.	c #803C52",
"z.	c #763955",
"A.	c #673756",
"B.	c #4A3852",
"C.	c #603755",
"D.	c #733856",
"E.	c #7E3B53",
"F.	c #833D50",
"G.	c #7B3A54",
"H.	c #703856",
"I.	c #583754",
"J.	c #A15D5C",
"K.	c #845157",
"L.	c #453A51",
"M.	c #3C3851",
"N.	c #613854",
"O.	c #923959",
"P.	c #A33D55",
"Q.	c #AD4350",
"R.	c #AB4151",
"S.	c #A03C57",
"T.	c #8A3859",
"U.	c #563853",
"V.	c #7E3858",
"W.	c #9C3B58",
"X.	c #A84052",
"Y.	c #AE434F",
"Z.	c #A63F54",
"`.	c #983A59",
" +	c #713856",
".+	c #E39175",
"++	c #BA7265",
"@+	c #4E3D52",
"#+	c #633953",
"$+	c #943B55",
"%+	c #A14150",
"&+	c #A4424E",
"*+	c #9F4051",
"=+	c #8C3A55",
"-+	c #563852",
";+	c #803955",
">+	c #9D3E53",
",+	c #A3424F",
"'+	c #993D54",
")+	c #733954",
"!+	c #F6B98D",
"~+	c #CD9075",
"{+	c #E68E75",
"]+	c #473851",
"^+	c #563952",
"/+	c #5D3A51",
"(+	c #603A51",
"_+	c #613B50",
":+	c #613C51",
"<+	c #5D3C52",
"[+	c #503C52",
"}+	c #583B52",
"|+	c #5F3A51",
"1+	c #5B3A51",
"2+	c #573951",
"3+	c #4B3851",
"4+	c #FCC997",
"5+	c #FBC996",
"6+	c #F2B087",
"7+	c #E79176",
"8+	c #3F3851",
"9+	c #3D3851",
"0+	c #483852",
"a+	c #723757",
"b+	c #8D3D52",
"c+	c #9D4750",
"d+	c #A85656",
"e+	c #B0655D",
"f+	c #B0655E",
"g+	c #9D4850",
"h+	c #3B3851",
"i+	c #534A59",
"j+	c #DAC4A4",
"k+	c #FEDAAC",
"l+	c #F6BE8F",
"m+	c #EB9E7D",
"n+	c #553952",
"o+	c #963D54",
"p+	c #AB4250",
"q+	c #BC5855",
"r+	c #CA6B5E",
"s+	c #CE7363",
"t+	c #DBD3B4",
"u+	c #FFE4B7",
"v+	c #FBCB97",
"w+	c #9C3F52",
"x+	c #AC434F",
"y+	c #BD5B57",
"z+	c #CB6F60",
"A+	c #DBC69F",
"B+	c #FFDBA8",
"C+	c #4D3852",
"D+	c #9B3F52",
"E+	c #AC4C50",
"F+	c #B85D58",
"G+	c #C06C60",
"H+	c #534756",
"I+	c #D8B38C",
"J+	c #FECF9B",
"K+	c #413851",
"L+	c #453851",
"M+	c #4A3851",
"N+	c #553852",
"O+	c #5E3A51",
"P+	c #643D51",
"Q+	c #684152",
"R+	c #694454",
"S+	c #664454",
"T+	c #664152",
"U+	c #DAC199",
"V+	c #FFD8A4",
"W+	c #833A56",
"X+	c #96404F",
"Y+	c #96414F",
"Z+	c #9D4851",
"`+	c #A04A51",
" @	c #8D3E4F",
".@	c #563950",
"+@	c #8D4852",
"@@	c #9E4851",
"#@	c #DABD95",
"$@	c #7A3B53",
"%@	c #A44053",
"&@	c #AF444E",
"*@	c #C7665B",
"=@	c #B55C59",
"-@	c #684253",
";@	c #AC5C59",
">@	c #BE5955",
",@	c #7F3C52",
"'@	c #A84151",
")@	c #B9635C",
"!@	c #6A4453",
"~@	c #AD5F5B",
"{@	c #BF5C57",
"]@	c #8F3B57",
"^@	c #A3424E",
"/@	c #AC4D51",
"(@	c #B15152",
"_@	c #9C4450",
":@	c #5E3B51",
"<@	c #9B4D53",
"[@	c #AE4D51",
"}@	c #473852",
"|@	c #533852",
"1@	c #5A3A51",
"2@	c #633C51",
"3@	c #4D3951",
"4@	c #5E3C51",
"5@	c #643C51",
"6@	c #733757",
"7@	c #8E3E52",
"8@	c #97414F",
"9@	c #97404F",
"0@	c #6A3756",
"a@	c #813C52",
"b@	c #883F4F",
"c@	c #D9B68E",
"  . + @ # $ # % & * = - ; > = * & % # $ # , ' * * = > ; - = * & % # $ # @ + .   ",
". ) ! ~ { ] ^ / ( _ : < [ } | _ ( / ^ ] 1 / 2 3 4 | } [ < : _ ( / ^ ] { ~ ! ) . ",
"+ 5 6 7 8 9 0 a b c d e f g h c b a 0 9 8 a i j k h g f e d c b a 0 9 8 7 6 5 + ",
"* l j m m n m m m m o p q r s m m m m n m m m m m s r q p o m m m m n m m j l * ",
"* 3 j m m m m m m m o t q u v w m m m m m m m m w v u q t o m m m m m m m j 3 * ",
"* x y m m m m m m m z t A B C D m m m m m m m m D C B A t z m m m m m m m y x * ",
"+ E F m m m m m m G H I J K L M N O m m m m O N M L K J I H G m m m m m m F E + ",
"P Q R S m T O U V W X Y Z `  ...+.@.@.@.@.@.@.+... .` Z Y X W V U O T m S R Q P ",
"#.$.%.+.&.*.*.=.-.;.>.,.'.).` ` ` ` ` ` ` ` ` ` ` ` ).'.,.>.;.-.=.*.*.&.+.%.$.#.",
"!.~.{.].^.^.^.^.^./.(._.:.<.[.}.}.}.}.}.}.}.}.}.}.[.<.:._.(./.^.^.^.^.^.].{.~.!.",
"|.1.2.3.3.3.3.3.3.4.5.6.7.8.9.0.0.0.0.0.0.0.0.0.0.9.8.7.6.5.4.3.3.3.3.3.3.2.1.|.",
"a.b.c.d.,.,.,.,.d._.6.e.f.g.h.h.i.i.h.h.j.k.h.i.i.l.m.n.e.6._.d.,.,.,.,.d.c.b.a.",
"; o.p.q.q.r.Z s.'.:.7.f.t.u.v.w.x.y.z.A.B.C.D.E.F.G.H.I.n.7.:.'.s.Z r.q.q.J.K.L.",
"> } g r u B K ` ).<.8.g.M.N.O.P.Q.R.S.T.U.V.W.X.Y.Z.`. +m.8.<.).` K B u r .+++@+",
"= | h s v C L  .` [.9.j.M.#+$+%+&+&+*+=+-+;+>+,+&+,+'+)+l.9.[.`  .L C v s !+~+= ",
"* 4 k m w D C {+` }.0.j.t.]+^+/+(+_+:+<+[+}+|+(+/+1+2+3+j.0.}.` {+C D w m 4+4 * ",
"* 3 j m m 5+6+7+` }.0.j.8+9+0+a+b+c+d+e+f+d+g+b+a+0+h+t.j.0.}.` 7+6+5+m m j 3 * ",
"i+j+k+m m w l+m+` }.0.j.8+M.n+o+p+q+r+s+s+r+q+p+o+n+M.8+j.0.}.` m+l+w m m k+j+i+",
"$ t+u+n m m v+@.` }.0.j.8+M.2+w+x+y+z+s+s+z+y+x+w+2+M.8+j.0.}.` @.v+m m n u+t+$ ",
", A+B+m m m m @.` }.0.j.8+9+C+V.D+E+F+G+G+F+E+D+V.C+9+8+j.0.}.` @.m m m m B+A+, ",
"H+I+J+m m m m @.` }.0.j.K+L+M+N+O+P+Q+R+S+T+P+O+N+M+L+K+j.0.}.` @.m m m m J+I+H+",
"& U+V+m m m v+@.` }.0.k.C.W+X+Y+X+Z+`+ @.@+@@@X+Y+X+W+C.k.0.}.` @.v+m m m V+U+& ",
"' #@i m m w l+m+` }.0.l.$@%@&@&@&@q+*@=@-@;@>@&@&@&@%@$@l.0.}.` m+l+w m m i #@' ",
"* 3 j m m 5+6+7+` }.0.i.,@'@&@&@&@y+r+)@!@~@{@&@&@&@'@,@i.0.}.` 7+6+5+m m j 3 * ",
"* 4 k m w D C {+` }.0.h.A.]@,+&+^@/@(@_@:@<@[@^@&+,+]@A.h.0.}.` {+C D w m 4+4 * ",
"= | h s v C L  .` [.9.j.}@|@1@/+(+2@P+/+3@4@5@(+/+1@|@}@j.9.[.`  .L C v s !+~+= ",
"> } g r u B K ` ).<.8.g.t.h+0+6@7@8@X+8@8@9@8@7@6@0+h+t.g.8.<.).` K B u r .+++@+",
"; o.p.q.q.r.Z s.'.:.7.f.8+t.0+0@a@b@b@b@b@b@b@a@0@0+t.8+f.7.:.'.s.Z r.q.q.J.K.L.",
"a.b.c.d.,.,.,.,.d._.6.e.f.g.j.h.i.i.i.i.i.i.i.i.h.j.g.f.e.6._.d.,.,.,.,.d.c.b.a.",
"|.1.2.3.3.3.3.3.3.4.5.6.7.8.9.0.0.0.0.0.0.0.0.0.0.9.8.7.6.5.4.3.3.3.3.3.3.2.1.|.",
"!.~.{.].^.^.^.^.^./.(._.:.<.[.}.}.}.}.}.}.}.}.}.}.[.<.:._.(./.^.^.^.^.^.].{.~.!.",
"#.$.%.+.&.*.*.=.-.;.>.,.'.).` ` ` ` ` ` ` ` ` ` ` ` ).'.,.>.;.-.=.*.*.&.+.%.$.#.",
"P Q R S m T O U V W X Y Z `  ...+.@.@.@.@.@.@.+... .` Z Y X W V U O T m S R Q P ",
"+ E F m m m m m m G H I J K L M N O m m m m O N M L K J I H G m m m m m m F E + ",
"* x y m m m m m m m z t A B C D m m m m m m m m D C B A t z m m m m m m m y x * ",
"* 3 j m m m m m m m o t q u v w m m m m m m m m w v u q t o m m m m m m m j 3 * ",
"* l j m m n m m m m o p q r s m m m m m n m m m m s r q p o m m m m n m m j l * ",
"+ 5 6 7 8 9 0 a b c d e f g h c b i 7 8 9 0 a b c h g f e d c b a 0 9 8 7 6 5 + ",
". ) ! ~ { ] ^ / ( _ : < [ } | _ ( 2 c@{ ] ^ / ( _ | } [ < : _ ( / ^ ] { ~ ! ) . ",
"  . + @ # $ # % & * = - ; > = * & ' @ # $ # % & * = > ; - = * & % # $ # @ + .   "};
